<svg xmlns="http://www.w3.org/2000/svg" width="1024" height="1024" viewBox="0 0 1024 1024">
<g>
<path d="M 293.54 588.85 C290.60,580.48 284.43,557.80 282.29,547.50 C279.75,535.24 279.59,532.93 279.56,507.00 C279.54,482.61 279.80,477.97 281.87,466.00 C288.48,427.81 302.96,395.89 327.90,364.50 C348.81,338.20 375.43,317.06 405.71,302.24 C402.86,303.79 400.72,305.31 400.49,306.03 C400.19,306.98 397.71,308.69 394.97,309.82 C392.24,310.96 390.00,312.28 390.00,312.77 C390.00,314.21 399.29,312.54 402.28,310.57 C403.81,309.56 404.80,309.18 405.32,309.29 C403.20,309.78 391.42,316.86 383.49,322.49 C373.12,329.85 366.22,338.65 361.91,350.01 C361.29,351.62 360.78,353.07 360.49,353.98 C360.01,352.98 359.00,354.01 359.00,356.12 C359.00,357.22 359.42,357.86 359.94,357.54 C360.45,357.22 360.81,356.10 360.73,355.05 C360.72,354.90 360.70,354.76 360.68,354.64 C362.23,353.23 367.80,347.86 374.30,341.50 C379.77,336.14 384.81,331.48 387.44,329.30 C387.29,329.49 387.16,329.70 387.04,329.92 C386.48,330.98 385.28,332.58 384.39,333.47 C380.05,337.81 387.46,334.83 396.80,328.49 C398.15,327.57 399.20,327.00 400.00,326.77 C395.05,329.23 375.84,347.30 365.16,359.83 C361.61,363.99 359.94,365.88 359.68,367.95 C359.44,369.82 360.36,371.84 362.08,375.81 C364.45,381.30 373.06,391.98 374.89,391.71 C375.66,391.59 376.62,390.83 377.02,390.00 C377.19,389.65 377.77,388.45 378.60,386.71 C377.97,388.56 377.60,390.38 377.51,392.14 C377.35,395.11 376.66,397.59 375.87,398.09 C375.08,398.58 374.36,398.53 374.17,397.97 C373.63,396.42 372.85,396.79 372.59,398.34 L 368.15 393.94 C368.25,394.01 368.35,394.07 368.46,394.14 C372.17,396.40 372.62,396.43 373.40,394.41 C374.17,392.38 373.74,391.73 368.28,386.67 C362.64,381.44 362.00,381.21 362.00,384.45 C362.00,385.77 362.40,387.17 363.11,388.53 C360.77,385.72 358.64,382.68 357.56,380.55 L 354.63 374.73 L 352.06 377.74 C345.51,385.44 329.41,415.71 328.33,422.37 C327.53,427.30 331.59,435.36 338.85,443.22 C343.99,448.80 355.24,458.00 356.90,458.00 C357.28,458.00 358.85,451.55 360.38,443.66 C361.92,435.77 364.04,427.39 365.09,425.05 C365.13,424.97 365.16,424.88 365.20,424.80 C364.51,426.97 364.15,430.95 364.13,436.60 C364.11,442.11 363.71,447.72 363.23,449.06 C362.75,450.40 362.55,452.32 362.77,453.33 C363.37,456.02 364.06,454.83 365.65,447.48 C364.38,454.32 363.75,459.88 364.31,462.09 C364.70,463.65 366.07,464.90 368.21,465.63 C371.97,466.93 383.04,471.70 389.16,474.60 C386.32,473.86 383.48,474.66 383.19,476.69 C383.05,477.66 383.23,478.29 384.58,479.04 C379.94,477.32 375.60,475.56 372.08,473.93 C367.07,471.60 362.64,470.03 362.24,470.43 C361.23,471.44 361.30,522.68 362.33,532.16 L 363.15 539.82 L 367.83 541.79 C370.40,542.87 375.54,544.75 379.25,545.96 C382.96,547.17 386.00,548.32 386.00,548.51 C386.00,548.71 384.69,549.79 383.10,550.93 L 380.20 553.00 L 372.90 550.03 C369.84,548.78 367.07,547.83 365.82,547.57 C365.84,547.57 365.86,547.57 365.89,547.57 C367.99,547.57 367.66,545.47 365.42,544.61 C364.53,544.26 364.00,544.71 364.00,545.82 C364.00,546.67 364.50,547.30 365.29,547.50 C365.21,547.50 365.15,547.51 365.13,547.54 C364.87,547.80 365.18,550.83 365.82,554.26 C366.86,559.80 366.80,560.64 365.30,561.75 C362.12,564.11 361.37,563.02 359.57,553.44 L 357.76 543.87 L 352.59 541.58 C342.91,537.30 332.02,529.93 318.71,518.65 C315.53,515.95 312.69,513.98 312.40,514.27 C311.42,515.24 314.04,538.37 316.49,550.50 C319.82,566.93 322.30,574.03 325.65,576.70 L 328.40 578.90 L 325.63 579.95 C324.11,580.53 321.99,581.47 320.92,582.04 C319.29,582.91 318.82,582.67 317.99,580.48 C317.45,579.05 313.73,574.42 309.73,570.19 C300.90,560.86 296.29,554.58 291.97,546.00 C290.17,542.42 288.50,540.05 288.27,540.72 C287.03,544.34 297.67,581.01 301.36,585.83 C302.41,587.20 300.74,588.95 298.33,588.98 C297.69,588.99 296.46,589.27 295.59,589.60 C294.71,589.94 293.81,589.61 293.54,588.85 ZM 356.26 530.25 C355.62,525.43 355.40,503.62 355.59,487.59 C355.82,487.86 356.11,488.00 356.44,488.00 C358.83,488.00 359.07,486.38 356.98,484.48 C356.37,483.93 355.94,483.55 355.65,483.38 C355.77,476.91 355.97,471.94 356.24,470.39 L 356.98 466.28 L 350.74 461.90 C341.58,455.49 337.31,451.38 331.08,443.00 C328.01,438.88 325.05,435.41 324.50,435.29 C321.27,434.61 314.24,468.49 312.41,493.55 L 311.74 502.61 L 318.12 509.07 C321.63,512.62 327.65,518.05 331.50,521.13 C338.79,526.96 353.52,536.00 355.74,536.00 C356.72,536.00 356.84,534.65 356.26,530.25 ZM 308.57 474.00 C310.32,459.74 313.98,442.84 317.62,432.27 C319.79,425.95 319.96,424.57 318.93,421.27 C318.28,419.20 317.47,411.65 317.13,404.50 L 316.50 391.50 L 310.71 402.23 C303.28,415.98 297.18,432.26 295.74,442.16 C293.57,457.03 297.90,481.44 304.30,490.41 L 306.50 493.50 L 306.76 490.00 C306.91,488.08 307.72,480.88 308.57,474.00 ZM 311.13 553.84 C307.96,537.69 306.92,529.49 306.32,516.00 C305.81,504.28 305.60,503.28 303.00,499.96 C297.34,492.70 290.00,474.64 290.00,467.94 C290.00,466.49 289.65,465.96 289.07,466.55 C287.77,467.88 286.00,485.08 286.00,496.35 C286.00,518.85 294.21,542.62 307.76,559.34 C310.28,562.45 312.52,564.81 312.75,564.58 C312.98,564.36 312.25,559.52 311.13,553.84 ZM 327.97 407.00 C331.12,399.45 339.17,385.21 346.06,375.00 C351.61,366.78 353.61,361.78 353.13,357.40 C353.00,356.24 353.78,352.98 354.85,350.15 C356.31,346.31 356.48,345.00 355.53,345.00 C354.10,345.00 343.34,356.10 337.07,364.03 C328.75,374.56 323.00,391.30 323.00,405.02 C323.00,416.06 324.02,416.46 327.97,407.00 ZM 374.18 684.58 C374.04,684.55 373.90,684.51 373.74,684.47 C368.85,683.24 369.74,686.04 376.26,692.30 C380.70,696.58 387.17,701.04 397.10,706.68 C403.97,710.59 410.58,714.00 417.11,716.98 C408.11,712.90 399.04,708.05 389.50,702.27 C365.65,687.83 351.71,675.91 333.78,654.64 C324.42,643.54 323.84,642.59 325.54,641.34 C326.55,640.60 328.08,640.03 328.94,640.06 C329.80,640.09 333.65,643.94 337.50,648.60 C347.17,660.33 368.75,681.35 374.18,684.58 ZM 382.07 654.90 L 377.07 654.85 C368.40,654.77 368.00,654.82 368.00,656.06 C368.00,656.64 368.41,656.86 368.92,656.55 C369.09,657.50 370.49,659.64 372.66,662.04 C375.62,665.32 376.80,666.01 377.73,664.21 L 376.94 666.29 L 374.62 664.11 C372.70,662.31 371.85,662.11 369.65,662.94 C368.19,663.50 367.00,664.32 367.00,664.78 C367.00,664.97 367.28,665.42 367.75,666.01 C364.50,662.41 360.07,657.02 357.37,653.36 C353.93,648.72 349.85,644.62 346.29,642.25 C340.53,638.43 338.62,636.00 341.36,636.00 C342.20,636.00 344.39,635.11 346.22,634.03 L 349.55 632.07 L 353.04 636.78 C357.28,642.52 362.75,646.29 374.30,651.44 L 382.07 654.90 ZM 398.51 351.06 C398.15,351.56 397.81,352.03 397.49,352.45 C396.67,353.53 396.00,355.33 396.00,356.45 C395.99,357.58 395.07,360.01 393.94,361.86 C392.81,363.71 392.08,365.41 392.30,365.64 C392.88,366.22 396.00,364.93 396.00,364.11 C396.00,362.94 402.38,353.47 405.23,350.42 C405.95,349.66 406.74,348.76 407.45,347.93 C402.78,354.42 392.71,372.13 386.45,384.25 C389.00,378.84 391.00,374.07 391.00,373.37 C391.00,371.04 388.57,371.85 385.67,375.16 C383.96,377.11 382.51,379.06 381.33,381.00 C381.87,379.87 382.43,378.69 383.00,377.50 C387.48,368.09 394.64,355.78 398.02,351.68 C398.17,351.50 398.33,351.29 398.51,351.06 ZM 372.54 400.40 C372.68,401.56 373.15,401.77 374.32,401.40 C375.58,401.00 376.30,401.43 376.66,402.79 C376.99,404.08 377.78,404.61 378.92,404.31 C378.94,404.30 378.96,404.30 378.99,404.30 C377.65,405.08 375.58,410.02 373.42,416.73 C374.63,412.75 375.72,409.47 376.46,407.75 C377.07,406.33 376.70,406.00 374.50,406.00 C372.37,406.00 371.93,406.36 372.43,407.67 C372.86,408.79 372.06,410.26 370.03,412.12 C369.06,413.00 368.34,413.85 367.85,414.72 C368.41,412.70 369.19,410.17 370.05,407.67 L 372.54 400.40 ZM 364.04 356.87 L 364.07 360.50 L 366.53 357.50 C369.18,354.26 369.60,352.49 367.96,351.47 C366.08,350.31 364.00,353.17 364.04,356.87 ZM 385.34 619.02 C385.06,618.58 384.79,618.24 384.57,618.05 C383.50,617.17 383.10,617.85 382.57,621.41 C382.22,623.75 382.23,625.29 382.84,627.19 C379.06,619.17 379.09,618.41 380.55,617.34 C383.01,615.54 383.78,615.59 385.34,619.02 ZM 385.51 632.79 C386.69,634.67 387.91,636.00 388.54,636.00 C390.31,636.00 392.16,640.28 391.75,643.40 C391.70,643.73 391.53,644.19 391.26,644.75 L 385.51 632.79 ZM 466.18 564.84 L 460.62 564.50 L 468.96 559.00 L 487.90 559.00 C499.24,559.00 514.15,558.31 527.89,557.30 C514.14,558.32 499.17,559.01 487.67,559.03 C468.00,559.06 466.16,559.40 464.74,563.21 C464.40,564.10 464.57,564.55 466.18,564.84 ZM 370.41 668.91 C370.46,668.96 370.50,669.00 370.55,669.05 C374.59,672.96 377.61,678.30 376.08,678.81 C375.52,678.99 375.34,680.47 375.67,682.12 C376.05,683.99 376.12,684.68 375.41,684.75 C375.66,684.02 375.65,681.83 375.36,679.25 C374.82,674.57 374.33,673.25 370.41,668.91 ZM 352.00 366.00 C352.00,367.29 352.51,368.00 353.25,367.75 C353.94,367.52 354.50,366.73 354.50,366.00 C354.50,365.27 353.94,364.48 353.25,364.25 C352.51,364.00 352.00,364.71 352.00,366.00 ZM 359.67 380.33 C360.88,381.55 361.95,381.02 361.36,379.50 C361.05,378.67 360.38,378.00 359.89,378.00 C358.84,378.00 358.71,379.38 359.67,380.33 ZM 436.84 587.58 C435.81,585.03 434.01,583.86 432.73,584.99 C433.41,583.86 434.26,583.00 434.96,583.00 C435.38,583.00 436.20,585.00 436.84,587.58 ZM 405.77 309.94 C405.77,311.64 402.65,316.30 397.77,321.11 C401.72,316.86 405.50,311.86 405.77,309.94 ZM 426.47 409.62 L 425.87 413.21 L 423.72 412.88 C425.60,412.81 426.08,411.78 426.47,409.62 ZM 405.23 636.06 C401.26,638.81 397.71,641.00 397.19,641.00 C397.08,641.00 396.91,640.89 396.71,640.68 C396.71,640.68 396.71,640.68 396.71,640.69 C397.36,640.95 401.13,638.89 405.23,636.06 ZM 373.53 657.87 C375.46,658.67 377.53,659.69 378.78,660.54 C378.88,660.60 378.76,661.22 378.50,662.07 C378.82,660.67 378.22,660.03 373.53,657.87 ZM 393.00 635.08 C390.97,631.54 388.76,627.17 387.58,624.18 C389.30,627.99 391.29,631.97 393.00,635.08 ZM 546.00 561.88 C530.54,563.41 513.31,564.52 498.46,565.03 C513.61,564.47 531.31,563.33 546.00,561.88 ZM 444.58 615.12 C444.03,614.23 440.47,601.76 438.57,594.42 C440.75,602.61 444.13,614.39 444.58,615.12 ZM 420.72 489.23 L 412.61 487.50 C409.35,486.80 405.54,485.81 401.49,484.63 C405.71,485.81 409.90,486.90 412.61,487.48 L 420.72 489.23 ZM 387.08 650.81 L 383.65 654.92 L 383.47 654.91 L 387.08 650.81 ZM 419.24 482.90 C419.68,482.87 420.01,482.52 420.27,481.49 C420.12,482.46 419.98,483.00 419.86,483.00 C419.78,483.00 419.56,482.96 419.24,482.90 ZM 426.34 523.20 C425.25,524.18 424.44,524.65 423.82,524.33 C424.53,524.35 425.53,523.93 426.34,523.20 ZM 422.38 520.42 C421.97,517.59 421.71,513.08 421.43,506.35 C421.69,512.68 422.01,517.42 422.38,520.42 ZM 366.71 420.44 C366.46,421.63 366.08,422.84 365.64,423.72 C366.09,422.58 366.46,421.41 366.71,420.44 ZM 401.40 326.86 C401.81,327.17 402.00,327.82 402.00,328.82 C402.00,328.10 401.75,327.33 401.40,326.86 ZM 396.78 405.13 C395.13,404.47 393.61,403.80 392.10,403.05 C393.58,403.76 395.14,404.46 396.78,405.13 ZM 432.77 594.73 C433.39,597.30 434.18,600.55 435.00,603.90 C436.28,609.12 437.24,613.75 437.49,615.77 C437.24,613.75 436.28,609.12 435.00,603.90 C434.18,600.57 433.39,597.32 432.77,594.73 ZM 406.00 338.90 C406.00,339.22 405.23,340.64 404.11,342.51 C405.21,340.66 406.00,339.21 406.00,338.90 ZM 382.05 397.09 C381.94,397.01 381.82,396.94 381.71,396.86 C381.68,396.84 381.66,396.82 381.65,396.78 C381.78,396.89 381.91,396.99 382.05,397.09 ZM 431.45 588.92 C431.46,589.06 431.47,589.20 431.49,589.34 C431.47,589.20 431.45,589.06 431.45,588.92 ZM 389.75 408.12 C389.90,408.19 390.06,408.27 390.21,408.34 C390.23,408.35 390.24,408.35 390.26,408.36 C390.09,408.28 389.92,408.20 389.75,408.12 Z" fill="rgba(46,97,137,1)"/>
<path d="M 423.30 524.18 C422.54,523.72 421.89,517.52 421.43,506.35 L 420.72 489.23 L 412.61 487.48 C408.15,486.52 399.63,484.19 393.69,482.31 C383.96,479.23 382.91,478.67 383.19,476.69 C383.57,474.04 388.28,473.49 391.67,475.71 C392.86,476.49 395.11,477.30 396.67,477.50 C398.23,477.71 403.89,479.03 409.26,480.44 C414.63,481.85 419.40,483.00 419.86,483.00 C420.32,483.00 420.99,475.59 421.36,466.54 C422.00,451.04 423.22,435.37 424.61,424.85 C425.23,420.22 425.22,420.21 421.86,419.49 C414.31,417.89 399.18,412.56 390.21,408.34 C384.97,405.87 379.89,404.06 378.92,404.31 C377.78,404.61 376.99,404.08 376.66,402.79 C376.30,401.43 375.58,401.00 374.32,401.40 C372.89,401.85 372.50,401.44 372.50,399.49 C372.50,397.03 373.52,396.10 374.17,397.97 C374.36,398.53 375.08,398.58 375.87,398.09 C376.66,397.59 377.35,395.11 377.51,392.14 C377.80,386.77 380.60,380.94 385.67,375.16 C388.57,371.85 391.00,371.04 391.00,373.37 C391.00,374.13 388.69,379.58 385.87,385.48 C382.92,391.66 381.15,396.49 381.71,396.86 C390.50,402.67 394.59,404.64 404.66,407.93 C411.21,410.07 418.67,412.13 421.22,412.51 L 425.87 413.21 L 426.52 409.35 C428.89,395.23 430.51,387.76 434.05,374.58 C436.25,366.38 437.92,359.26 437.76,358.77 C437.59,358.27 433.93,356.33 429.62,354.46 C425.31,352.58 419.29,349.40 416.24,347.37 C410.91,343.83 410.65,343.77 409.33,345.60 C408.58,346.64 406.73,348.82 405.23,350.42 C402.38,353.47 396.00,362.94 396.00,364.11 C396.00,364.93 392.88,366.22 392.30,365.64 C392.08,365.41 392.81,363.71 393.94,361.86 C395.07,360.01 395.99,357.58 396.00,356.45 C396.00,355.33 396.67,353.53 397.49,352.45 C400.60,348.36 406.00,339.76 406.00,338.90 C406.00,338.40 405.10,336.31 404.00,334.26 C402.90,332.21 402.00,329.76 402.00,328.82 C402.00,326.04 400.55,325.94 396.80,328.49 C387.46,334.83 380.05,337.81 384.39,333.47 C385.28,332.58 386.48,330.98 387.04,329.92 C387.61,328.86 388.62,327.99 389.29,327.97 C389.95,327.96 393.25,325.37 396.61,322.22 C405.16,314.23 409.14,306.04 402.28,310.57 C399.29,312.54 390.00,314.21 390.00,312.77 C390.00,312.28 392.24,310.96 394.97,309.82 C397.71,308.69 400.19,306.98 400.49,306.03 C400.79,305.08 404.52,302.68 408.77,300.70 C432.06,289.88 454.32,283.37 479.60,279.98 C482.86,279.54 487.41,279.27 492.66,279.14 C490.47,279.34 490.41,279.80 490.63,280.63 C491.18,282.65 496.00,286.71 496.00,285.15 C496.00,284.94 496.28,284.74 496.74,284.58 C496.72,284.60 496.69,284.61 496.67,284.63 C495.45,285.39 495.10,287.53 494.10,293.50 C492.68,302.03 492.36,313.76 493.52,314.90 C494.81,316.17 501.27,316.86 507.50,316.39 C510.25,316.19 515.09,316.01 518.25,316.01 C521.71,316.00 523.34,315.76 523.83,315.12 C523.69,315.76 523.15,316.05 522.25,316.10 C521.03,316.17 521.20,316.40 522.81,316.85 C525.83,317.70 525.86,319.19 522.89,320.79 C521.79,321.39 521.22,321.70 521.30,321.84 L 510.00 321.83 L 492.50 321.81 L 492.23 340.63 C492.08,350.97 492.20,360.08 492.50,360.87 C492.96,362.07 496.40,362.19 514.27,361.66 C525.07,361.34 535.12,360.83 537.76,360.48 C537.28,360.65 537.00,360.84 537.03,361.00 C537.09,361.27 536.69,362.68 536.14,364.12 C535.15,366.73 535.16,366.74 539.50,366.25 C541.04,366.07 542.00,365.73 542.75,365.99 C542.92,366.05 543.09,366.14 543.24,366.28 C541.79,366.17 537.15,366.43 531.85,366.93 C525.61,367.51 514.31,367.99 506.75,368.00 L 493.00 368.00 L 492.99 376.25 C492.99,380.79 493.52,392.55 494.17,402.40 L 495.35 420.29 L 514.92 419.66 C525.69,419.31 538.78,418.44 544.01,417.72 C549.23,417.01 554.01,416.10 554.65,415.72 C553.71,416.30 548.81,417.28 542.39,418.18 C541.78,418.26 541.50,419.20 541.78,420.25 C542.13,421.59 542.50,421.80 543.03,420.95 C543.55,420.11 543.98,420.36 544.43,421.79 C545.02,423.63 545.66,423.79 550.44,423.29 C554.12,422.91 555.85,423.00 556.88,424.81 C556.81,424.72 556.74,424.63 556.66,424.55 C554.87,422.73 550.72,423.22 539.43,424.35 C530.67,425.23 517.31,426.25 509.75,426.62 L 496.00 427.29 L 496.04 432.40 C496.06,435.20 496.71,445.60 497.49,455.50 C498.89,473.32 498.88,473.52 496.84,475.25 C495.71,476.21 494.41,477.00 493.95,477.00 C493.16,477.00 492.22,471.29 492.14,466.00 C492.05,460.00 489.43,428.09 488.99,427.65 C488.72,427.39 481.30,426.67 472.50,426.06 C457.58,425.03 434.37,422.28 432.82,421.37 C432.44,421.15 431.85,421.43 431.50,422.00 C430.43,423.73 428.17,448.55 427.43,466.73 C426.85,480.98 426.96,484.04 428.11,484.46 C431.41,485.67 450.44,488.08 461.29,488.67 C467.77,489.02 473.28,489.65 473.54,490.07 C474.45,491.53 467.27,495.00 463.34,495.00 C459.84,495.00 444.97,493.31 431.64,491.40 L 426.78 490.70 L 427.50 506.10 C428.17,520.42 428.08,521.62 426.34,523.20 C425.30,524.13 423.93,524.58 423.30,524.18 ZM 470.79 710.11 C471.08,709.96 471.41,709.80 471.76,709.64 L 469.50 710.82 L 472.25 712.07 C473.76,712.76 475.01,714.04 475.02,714.91 C475.03,715.95 475.29,716.11 475.77,715.37 C475.82,715.30 475.90,715.21 476.01,715.11 C476.56,716.21 480.98,718.54 487.50,721.12 C488.44,721.49 489.38,721.85 490.29,722.20 C484.89,720.21 484.07,720.19 480.50,721.48 C478.67,722.13 477.50,722.71 477.56,722.89 C476.92,722.57 476.12,722.23 475.25,721.96 C473.19,721.30 471.07,720.36 470.55,719.88 C470.03,719.40 468.92,719.00 468.10,719.00 C464.90,719.00 469.62,721.80 476.45,724.17 C474.56,723.84 474.62,724.92 476.65,727.17 C478.20,728.88 478.19,729.14 476.49,731.01 C475.50,732.11 474.86,733.18 475.09,733.40 C475.19,733.49 476.01,733.66 477.30,733.87 C446.69,729.65 423.93,721.93 397.10,706.68 C387.17,701.04 380.70,696.58 376.26,692.30 C369.74,686.04 368.85,683.24 373.74,684.47 C376.11,685.06 376.23,684.91 375.67,682.12 C375.34,680.47 375.52,678.99 376.08,678.81 C377.61,678.30 374.59,672.96 370.55,669.05 C368.60,667.16 367.00,665.23 367.00,664.78 C367.00,664.32 368.19,663.50 369.65,662.94 C371.85,662.11 372.70,662.31 374.62,664.11 L 376.94 666.29 L 378.00 663.51 C378.58,661.98 378.93,660.64 378.78,660.54 C376.10,658.73 369.64,656.11 368.93,656.54 C368.42,656.86 368.00,656.64 368.00,656.06 C368.00,654.82 368.40,654.77 377.07,654.85 L 383.65 654.92 L 387.55 650.24 C389.70,647.68 391.59,644.60 391.75,643.40 C392.16,640.28 390.31,636.00 388.54,636.00 C387.71,636.00 385.88,633.72 384.47,630.93 C382.36,626.78 382.02,625.06 382.57,621.41 C383.10,617.85 383.50,617.17 384.57,618.05 C385.30,618.66 386.43,620.81 387.09,622.83 C388.77,628.02 395.98,641.00 397.19,641.00 C397.74,641.00 401.64,638.58 405.85,635.62 C410.06,632.67 416.78,628.60 420.79,626.59 C424.80,624.58 427.85,622.56 427.57,622.11 C427.29,621.65 424.68,620.99 421.78,620.64 C418.88,620.29 410.65,618.51 403.50,616.69 C390.12,613.29 387.96,611.82 392.80,609.41 C394.66,608.49 396.63,608.71 403.00,610.56 C411.84,613.13 436.69,617.64 437.51,616.82 C437.80,616.53 436.67,610.72 435.00,603.90 C433.33,597.08 431.77,590.64 431.53,589.59 C431.30,588.54 431.55,586.84 432.09,585.83 C433.61,582.99 436.63,585.18 437.45,589.72 C438.14,593.53 443.88,613.97 444.58,615.12 C444.78,615.45 447.10,614.72 449.73,613.48 C452.18,612.33 456.30,610.71 460.75,609.10 C460.52,609.21 460.36,609.30 460.30,609.37 C460.08,609.59 460.63,610.49 461.52,611.38 C463.87,613.72 467.51,613.42 468.68,610.79 C469.46,609.04 470.58,608.54 474.08,608.41 C477.42,608.28 479.77,607.96 491.24,605.16 C489.32,605.78 483.98,607.49 479.00,609.06 C462.21,614.36 455.71,617.11 456.97,618.37 C458.04,619.44 513.69,619.66 542.32,619.04 C538.08,619.21 533.42,619.38 528.75,619.53 C515.14,619.96 504.00,620.65 504.00,621.06 C504.00,621.48 505.80,622.13 508.00,622.50 C514.14,623.54 512.58,625.71 505.30,626.25 C503.93,626.36 503.41,626.81 503.93,627.46 C504.48,628.15 505.60,635.49 506.51,643.02 C505.56,635.44 504.37,628.02 503.75,627.25 C503.04,626.36 498.73,626.00 488.63,626.00 C480.86,626.00 468.52,625.49 461.22,624.86 C453.92,624.24 447.75,623.92 447.51,624.15 C446.35,625.32 455.55,649.36 462.00,662.01 L 464.04 666.00 L 471.27 665.94 C475.25,665.90 485.02,665.11 493.00,664.17 C485.02,665.11 475.99,665.90 472.93,665.94 L 467.36 666.00 L 467.64 669.53 C467.89,672.73 467.64,673.12 464.99,673.65 L 462.06 674.24 L 463.34 676.48 C462.19,674.90 461.29,675.03 458.08,675.51 C453.05,676.27 441.50,680.23 435.51,683.27 L 431.52 685.29 L 438.01 691.24 C442.93,695.76 464.94,711.59 466.79,711.94 C466.95,711.97 468.75,711.15 470.79,710.11 ZM 488.46 408.25 C488.05,401.79 487.45,389.76 487.11,381.53 L 486.50 366.56 L 475.14 365.30 C468.89,364.60 460.12,363.31 455.64,362.43 C451.16,361.54 446.84,360.75 446.03,360.66 C444.33,360.47 443.17,363.62 438.97,379.77 C434.59,396.66 431.70,414.19 433.15,415.09 C433.79,415.49 438.63,416.34 443.91,416.97 C449.18,417.61 456.20,418.50 459.50,418.95 C462.80,419.39 470.83,419.81 477.35,419.88 L 489.20 420.00 ZM 457.00 666.51 C457.00,666.23 454.99,661.54 452.53,656.07 C450.07,650.60 446.41,641.26 444.40,635.31 C442.38,629.37 440.58,624.32 440.39,624.11 C439.79,623.41 425.89,630.00 416.42,635.47 C406.89,640.97 401.00,645.54 401.00,647.43 C401.00,648.70 409.85,662.18 411.32,663.16 C412.48,663.92 428.74,665.89 437.50,666.32 C449.46,666.92 457.00,666.99 457.00,666.51 ZM 486.00 340.67 L 486.00 320.33 L 475.75 317.94 C470.11,316.62 464.94,315.39 464.26,315.20 C461.72,314.50 445.27,352.19 447.39,353.86 C449.32,355.38 475.10,360.30 484.25,360.89 C485.86,360.99 486.00,359.41 486.00,340.67 ZM 441.94 347.75 C442.64,345.41 446.37,336.40 450.23,327.72 L 457.25 311.95 L 453.68 308.47 C451.71,306.56 449.65,305.00 449.11,305.00 C445.86,305.00 422.02,327.87 416.62,336.16 C414.91,338.79 414.92,338.84 418.25,341.38 C421.70,344.01 437.64,351.92 439.59,351.97 C440.19,351.99 441.25,350.09 441.94,347.75 ZM 415.96 693.10 C416.62,691.50 418.25,689.17 419.58,687.92 C420.91,686.67 422.00,685.39 422.00,685.08 C421.99,684.76 418.72,680.99 414.73,676.70 L 407.46 668.91 L 398.48 666.61 C393.54,665.35 388.48,663.99 387.23,663.58 C385.28,662.96 384.74,663.37 383.42,666.54 C382.57,668.57 382.10,670.82 382.38,671.54 C383.38,674.16 410.65,695.77 413.13,695.91 C414.03,695.96 415.29,694.71 415.96,693.10 ZM 471.80 565.27 C465.03,564.96 464.17,564.71 464.74,563.21 C466.16,559.40 468.00,559.06 487.67,559.03 C503.30,559.01 525.34,557.73 542.02,556.10 C540.13,556.32 538.14,556.55 536.07,556.78 C529.96,557.46 529.73,557.59 531.38,559.24 C532.34,560.20 532.85,561.44 532.50,561.99 C532.22,562.45 532.88,562.78 534.24,562.93 C511.01,564.79 484.36,565.84 471.80,565.27 ZM 460.71 716.37 C460.92,715.75 459.13,714.09 456.74,712.69 C451.20,709.45 440.69,701.68 435.41,696.94 C433.17,694.91 430.07,692.44 428.54,691.43 L 425.74 689.60 L 422.87 692.82 C421.29,694.59 420.00,696.93 420.00,698.03 C420.00,700.87 428.96,706.35 444.00,712.71 C456.17,717.86 459.95,718.69 460.71,716.37 ZM 487.62 300.00 C488.23,292.68 488.42,286.32 488.05,285.73 C488.05,285.73 488.06,285.73 488.07,285.73 C489.13,285.81 490.00,285.45 490.00,284.94 C490.00,283.80 487.31,283.68 486.63,284.79 C486.42,285.13 486.77,285.46 487.43,285.63 C484.96,286.30 476.65,294.57 471.88,301.37 C469.17,305.22 467.31,308.71 467.73,309.12 C468.91,310.28 482.24,313.92 484.50,313.70 C486.33,313.52 486.60,312.35 487.62,300.00 ZM 416.00 327.36 C418.48,324.31 424.71,317.78 429.85,312.85 C435.00,307.91 438.98,303.65 438.71,303.38 C438.15,302.82 423.25,310.65 415.36,315.66 C408.11,320.26 406.72,321.86 407.33,324.91 C408.14,328.91 409.87,333.01 410.73,332.95 C411.15,332.92 413.52,330.41 416.00,327.36 ZM 413.00 705.17 C413.00,704.10 410.72,701.74 407.46,699.42 C404.41,697.27 397.66,692.24 392.46,688.25 C387.25,684.26 382.79,681.00 382.54,681.00 C381.63,681.00 382.89,687.00 384.17,688.78 C387.72,693.70 399.63,702.50 406.50,705.28 C411.74,707.40 413.00,707.38 413.00,705.17 ZM 362.77 453.33 C362.55,452.32 362.75,450.40 363.23,449.06 C363.71,447.72 364.11,442.11 364.13,436.60 C364.16,429.97 364.65,425.65 365.58,423.84 C366.36,422.33 367.00,419.70 367.00,417.99 C367.00,415.81 367.90,414.06 370.03,412.12 C372.06,410.26 372.86,408.79 372.43,407.67 C371.93,406.36 372.37,406.00 374.50,406.00 C376.70,406.00 377.07,406.33 376.46,407.75 C374.21,412.99 368.65,432.78 366.66,442.62 C364.32,454.23 363.48,456.54 362.77,453.33 ZM 437.42 676.33 L 444.35 673.50 L 434.92 672.34 C423.48,670.92 419.00,670.76 419.01,671.75 C419.01,672.16 420.65,674.23 422.66,676.34 C426.76,680.67 426.80,680.67 437.42,676.33 ZM 464.79 300.66 C467.01,297.72 469.57,294.57 470.48,293.66 C471.40,292.75 471.65,292.00 471.04,292.00 C469.65,292.00 459.16,297.33 456.50,299.38 C454.53,300.91 454.55,300.97 457.50,303.43 C459.15,304.80 460.56,305.94 460.63,305.96 C460.70,305.98 462.57,303.60 464.79,300.66 ZM 368.46 394.14 C364.64,391.81 362.00,387.85 362.00,384.45 C362.00,381.21 362.64,381.44 368.28,386.67 C373.74,391.73 374.17,392.38 373.40,394.41 C372.62,396.43 372.17,396.40 368.46,394.14 ZM 399.93 658.41 C399.28,657.63 399.14,657.00 399.62,657.00 C400.09,657.00 399.27,655.88 397.78,654.50 C396.30,653.12 394.67,652.00 394.16,652.00 C393.20,652.00 389.58,656.95 390.17,657.45 C391.19,658.30 399.63,660.66 400.30,660.28 C400.74,660.03 400.57,659.19 399.93,658.41 ZM 489.19 702.75 C488.20,701.92 487.65,701.94 487.10,702.84 C486.55,703.73 485.91,703.55 484.68,702.19 C483.75,701.18 483.00,699.82 483.00,699.17 C483.00,698.53 481.42,696.26 479.50,694.13 C477.58,692.00 476.00,689.24 476.00,687.99 C476.00,686.74 474.65,683.53 473.00,680.85 C471.89,679.05 470.92,677.19 470.40,675.94 C472.46,680.33 481.93,694.47 486.55,699.82 C487.97,701.47 488.97,702.50 489.83,703.07 C489.56,702.99 489.35,702.88 489.19,702.75 ZM 423.38 304.00 C427.14,301.80 430.57,300.00 430.99,300.00 C431.41,300.00 432.34,299.30 433.05,298.44 C434.13,297.14 433.49,297.20 429.33,298.78 C424.73,300.53 415.00,306.48 415.00,307.55 C415.00,308.59 416.90,307.78 423.38,304.00 ZM 534.61 336.52 C534.81,337.00 534.96,337.42 535.07,337.75 C535.67,339.54 536.49,341.00 536.90,341.00 C537.31,341.00 538.69,343.32 539.97,346.15 C541.72,350.01 542.04,351.71 541.25,352.97 C540.79,353.71 540.54,355.10 540.60,356.36 C540.08,354.37 539.11,351.15 538.00,347.84 C536.35,342.92 534.99,338.35 534.97,337.69 C534.97,337.52 534.84,337.10 534.61,336.52 ZM 364.04 356.87 C364.00,353.17 366.08,350.31 367.96,351.47 C369.60,352.49 369.18,354.26 366.53,357.50 L 364.07 360.50 ZM 438.00 717.21 C438.00,716.17 424.92,709.75 424.22,710.45 C423.47,711.20 423.66,711.33 430.50,714.83 C436.90,718.11 438.00,718.46 438.00,717.21 ZM 562.61 414.26 C562.07,413.95 561.40,413.57 560.72,413.16 C557.32,411.13 556.15,407.42 558.25,405.32 C559.08,404.49 559.39,403.64 559.23,402.30 C560.72,408.56 561.00,410.16 561.00,411.11 C561.00,412.01 561.79,413.40 562.61,414.26 ZM 527.74 424.33 C530.42,425.06 539.15,424.74 538.27,423.94 C536.96,422.76 527.19,421.89 526.56,422.90 C526.24,423.42 526.77,424.06 527.74,424.33 ZM 517.59 716.24 C517.05,712.34 516.41,708.80 515.98,707.20 C516.31,707.66 516.91,708.00 517.48,708.00 C519.49,708.00 520.22,711.10 518.62,712.89 C517.82,713.79 517.53,714.84 517.68,716.92 C517.65,716.70 517.62,716.47 517.59,716.24 ZM 554.41 561.00 C552.19,561.26 549.43,561.54 546.00,561.88 C543.90,562.08 541.75,562.29 539.54,562.48 C540.07,562.30 540.45,562.08 540.60,561.85 C541.07,561.08 540.87,560.96 540.00,561.50 C539.20,562.00 538.93,561.92 539.32,561.29 C539.71,560.66 543.53,560.46 549.40,560.77 C551.48,560.88 553.11,560.96 554.41,561.00 ZM 355.00 485.35 C355.00,482.76 355.06,482.74 356.98,484.48 C359.07,486.38 358.83,488.00 356.44,488.00 C355.55,488.00 355.00,486.99 355.00,485.35 ZM 364.00 545.82 C364.00,544.71 364.53,544.26 365.42,544.61 C367.66,545.47 367.99,547.57 365.89,547.57 C364.75,547.57 364.00,546.87 364.00,545.82 ZM 352.00 366.00 C352.00,364.71 352.51,364.00 353.25,364.25 C353.94,364.48 354.50,365.27 354.50,366.00 C354.50,366.73 353.94,367.52 353.25,367.75 C352.51,368.00 352.00,367.29 352.00,366.00 ZM 563.92 554.52 C563.92,554.94 563.88,555.47 563.82,556.16 C563.59,558.44 563.28,559.44 559.56,560.22 C560.17,559.83 560.70,559.27 561.43,558.49 C562.88,556.92 563.73,555.49 563.92,554.52 ZM 359.00 356.12 C359.00,353.51 360.54,352.56 360.73,355.05 C360.81,356.10 360.45,357.22 359.94,357.54 C359.42,357.86 359.00,357.22 359.00,356.12 ZM 359.67 380.33 C358.71,379.38 358.84,378.00 359.89,378.00 C360.38,378.00 361.05,378.67 361.36,379.50 C361.95,381.02 360.88,381.55 359.67,380.33 ZM 513.82 699.51 C514.25,698.43 513.70,693.13 512.24,684.34 L 514.71 699.18 L 513.82 699.51 ZM 532.30 734.55 C526.29,735.10 519.85,735.39 512.00,735.54 C504.01,735.69 498.15,735.67 492.79,735.40 C504.20,735.80 520.70,735.44 532.30,734.55 ZM 696.33 640.00 C674.60,670.79 639.71,698.31 602.28,715.38 C640.85,697.53 674.89,670.39 696.33,640.00 ZM 544.23 367.86 C545.20,370.22 546.34,375.22 548.91,385.50 C551.27,394.90 552.87,401.58 553.85,406.23 C551.40,395.16 545.99,373.71 544.23,367.86 ZM 503.94 701.61 C506.63,701.21 509.19,700.77 511.01,700.39 C508.74,700.91 504.65,701.67 500.52,702.31 C498.33,702.65 496.53,702.90 495.06,703.06 C497.31,702.65 500.68,702.10 503.94,701.61 ZM 524.34 590.65 C542.88,586.11 561.42,581.99 564.86,582.00 C565.20,582.01 565.72,582.16 566.31,582.42 C564.84,581.93 563.19,582.16 559.13,582.89 C551.08,584.35 537.67,587.39 524.34,590.65 ZM 554.86 589.97 C547.57,591.50 535.90,594.15 524.49,596.83 C535.70,594.10 547.78,591.37 554.86,589.97 ZM 558.42 398.91 C556.90,393.21 555.25,386.36 553.92,380.43 C554.09,381.17 554.27,381.93 554.46,382.70 C556.20,389.75 557.48,394.99 558.42,398.91 ZM 507.18 288.07 C510.66,291.72 514.12,296.40 517.76,302.35 C514.35,296.98 510.21,291.25 507.18,288.07 ZM 492.30 714.92 C495.52,717.59 498.90,720.50 501.33,722.69 C499.28,721.04 495.84,718.10 493.24,715.75 C492.93,715.47 492.61,715.19 492.30,714.92 ZM 571.20 585.77 L 572.40 586.73 L 564.52 588.14 C568.74,587.32 571.64,586.70 571.76,586.57 C571.85,586.48 571.63,586.18 571.20,585.77 ZM 528.41 323.65 C529.02,324.60 529.73,325.99 530.73,328.00 C531.85,330.23 533.03,332.78 533.91,334.81 C533.22,333.25 532.27,331.24 531.22,329.18 L 528.41 323.65 ZM 574.75 725.86 C571.50,726.86 568.25,727.76 565.00,728.57 C559.88,729.84 555.36,730.89 551.13,731.75 C558.92,730.12 567.36,728.02 574.75,725.86 ZM 518.07 719.97 C518.55,722.99 518.62,725.74 518.23,726.11 C518.21,726.12 518.19,726.13 518.17,726.15 C518.17,726.14 518.18,726.14 518.19,726.13 C518.48,725.86 518.38,723.08 517.99,719.44 C518.01,719.62 518.04,719.79 518.07,719.97 ZM 514.57 706.19 C512.67,706.24 508.59,706.79 504.75,707.46 C505.18,707.38 505.63,707.30 506.08,707.22 C510.68,706.40 513.25,706.07 514.57,706.19 ZM 518.53 279.45 C516.40,279.38 514.16,279.31 511.81,279.26 C507.84,279.17 504.59,279.09 501.94,279.05 C507.32,279.07 513.01,279.21 518.53,279.45 ZM 540.84 358.81 C540.75,359.66 540.23,359.99 539.06,360.17 C539.03,360.17 539.00,360.18 538.97,360.18 C539.84,359.85 540.54,359.34 540.84,358.81 ZM 486.87 711.08 C487.68,711.18 488.30,711.66 489.38,712.53 C489.79,712.86 490.21,713.20 490.64,713.55 C489.03,712.28 487.61,711.35 486.87,711.08 ZM 477.67 722.95 C477.69,722.95 477.72,722.96 477.75,722.96 C478.44,722.98 479.00,723.41 479.00,723.91 C479.00,723.94 479.00,723.97 478.99,724.00 C478.91,723.72 478.41,723.34 477.67,722.95 ZM 671.00 345.18 C658.81,333.22 645.00,322.58 630.00,313.51 C644.99,322.55 658.75,333.16 671.00,345.18 ZM 523.31 321.85 C523.52,321.83 523.75,321.81 523.99,321.79 C525.07,321.70 525.82,321.66 526.46,321.85 L 523.31 321.85 ZM 473.63 604.74 C477.04,603.69 479.64,603.00 480.48,603.00 C481.78,603.00 482.98,602.62 483.17,602.15 C482.98,602.62 481.83,603.00 480.60,603.00 C479.85,603.00 476.99,603.75 473.63,604.74 ZM 546.70 282.15 C543.67,281.61 540.67,281.17 537.58,280.81 C540.41,281.12 542.93,281.46 545.00,281.83 C545.57,281.94 546.13,282.04 546.70,282.15 ZM 572.95 288.48 C571.76,288.13 570.55,287.79 569.35,287.46 C565.93,286.52 562.77,285.68 559.76,284.94 C564.21,286.01 568.61,287.19 572.95,288.48 ZM 504.10 726.38 C502.47,726.29 498.20,725.07 492.63,723.05 C497.86,724.93 502.27,726.21 504.10,726.38 ZM 558.65 432.52 C559.44,436.35 560.91,437.02 563.01,434.48 C560.88,437.05 559.43,436.39 558.65,432.52 ZM 560.30 553.74 C560.84,553.64 561.35,553.53 561.82,553.43 C562.07,553.38 562.29,553.33 562.48,553.30 C562.41,553.32 562.33,553.34 562.25,553.36 C561.92,553.46 561.26,553.58 560.30,553.74 ZM 470.00 674.70 C470.00,674.67 470.00,674.65 470.00,674.62 C470.00,674.37 470.19,674.13 470.56,673.89 C470.21,674.14 470.03,674.40 470.00,674.70 Z" fill="rgba(57,139,134,1)"/>
<path d="M 558.43 431.25 C557.28,423.32 556.62,422.66 550.44,423.29 C545.66,423.79 545.02,423.63 544.43,421.79 C543.98,420.36 543.55,420.11 543.03,420.95 C542.50,421.80 542.13,421.59 541.78,420.25 C541.50,419.20 541.78,418.26 542.39,418.18 C548.81,417.28 553.71,416.30 554.65,415.72 C555.88,414.96 554.56,408.05 548.91,385.50 C545.07,370.18 544.44,366.57 542.75,365.99 C542.00,365.73 541.04,366.07 539.50,366.25 C535.16,366.74 535.15,366.73 536.14,364.12 C536.69,362.68 537.09,361.27 537.03,361.00 C536.97,360.73 537.88,360.35 539.06,360.17 C540.77,359.90 541.10,359.32 540.70,357.24 C540.43,355.81 540.68,353.89 541.25,352.97 C542.04,351.71 541.72,350.01 539.97,346.15 C538.69,343.32 537.31,341.00 536.90,341.00 C536.49,341.00 535.67,339.54 535.07,337.75 C534.48,335.96 532.52,331.58 530.73,328.00 C527.58,321.71 527.37,321.51 523.99,321.79 C520.62,322.07 520.58,322.04 522.89,320.79 C525.86,319.19 525.83,317.70 522.81,316.85 C521.20,316.40 521.03,316.17 522.25,316.10 C524.80,315.95 524.42,313.94 520.58,307.15 C515.89,298.84 511.54,292.65 507.18,288.07 C504.18,284.92 502.80,284.20 499.75,284.20 C497.69,284.20 496.00,284.63 496.00,285.15 C496.00,286.71 491.18,282.65 490.63,280.63 C490.14,278.83 490.99,278.78 511.81,279.26 C536.01,279.81 547.60,281.46 569.35,287.46 C602.03,296.46 632.46,312.25 657.61,333.10 C651.38,328.20 648.04,327.23 646.33,329.57 C645.14,331.18 645.39,331.82 648.37,334.95 C648.92,335.52 649.61,336.32 650.37,337.25 C646.04,332.38 640.66,327.71 634.81,323.95 C630.57,321.23 626.75,319.00 626.31,319.00 C625.86,319.00 625.50,322.29 625.51,326.30 L 625.51 327.33 C625.30,327.54 625.01,327.90 624.61,328.40 C623.76,329.44 623.26,330.61 623.50,331.00 C623.74,331.38 623.05,332.65 621.97,333.81 C620.88,334.97 620.02,336.27 620.05,336.71 C620.06,336.88 620.36,337.26 620.86,337.75 L 619.39 339.86 C617.89,342.00 606.83,349.98 605.30,350.02 C604.86,350.03 603.49,350.82 602.26,351.77 L 600.03 353.50 L 604.61 361.50 C609.98,370.90 620.46,391.31 621.93,395.25 C622.49,396.76 623.23,398.00 623.57,398.00 C623.91,398.00 628.29,395.88 633.31,393.29 C639.13,390.28 644.76,386.37 648.86,382.49 C653.75,377.85 654.88,376.66 654.50,375.16 C654.83,376.28 654.39,377.02 652.96,378.54 C648.96,382.80 652.41,385.74 657.49,382.41 C659.08,381.37 659.66,381.06 660.81,382.30 C659.06,381.11 657.25,382.62 652.52,386.91 C644.25,394.40 636.58,399.11 625.27,403.62 C604.43,411.93 591.81,415.83 575.56,418.99 C569.54,420.16 564.29,421.32 563.88,421.57 C563.48,421.82 563.40,424.49 563.71,427.49 C564.09,431.17 563.86,433.46 563.02,434.48 C560.70,437.27 559.15,436.18 558.43,431.25 ZM 484.00 734.81 C479.33,734.24 475.32,733.61 475.09,733.40 C474.86,733.18 475.50,732.11 476.49,731.01 C478.19,729.14 478.20,728.88 476.65,727.17 C474.44,724.72 474.57,723.65 477.00,724.29 C478.10,724.58 479.00,724.40 479.00,723.91 C479.00,723.41 478.44,722.98 477.75,722.96 C477.06,722.93 478.30,722.27 480.50,721.48 C484.22,720.14 484.95,720.21 491.00,722.46 C499.32,725.55 505.21,727.09 504.81,726.08 C504.53,725.37 495.83,717.73 489.38,712.53 C486.97,710.59 486.84,710.59 481.71,712.40 C478.85,713.41 476.17,714.75 475.77,715.37 C475.29,716.11 475.03,715.95 475.02,714.91 C475.01,714.04 473.76,712.76 472.25,712.07 L 469.50 710.82 L 472.00 709.52 C473.38,708.80 476.41,707.65 478.75,706.95 C481.09,706.25 483.00,705.33 483.00,704.90 C483.00,704.47 481.19,702.03 478.98,699.48 C474.64,694.47 468.97,686.27 464.72,678.87 L 462.06 674.24 L 464.99 673.65 C467.64,673.12 467.89,672.73 467.64,669.53 L 467.36 666.00 L 472.93 665.94 C475.99,665.90 485.02,665.11 493.00,664.17 L 507.50 662.47 L 507.84 659.50 C508.28,655.65 505.00,628.82 503.93,627.46 C503.41,626.81 503.93,626.36 505.30,626.25 C512.58,625.71 514.14,623.54 508.00,622.50 C505.80,622.13 504.00,621.48 504.00,621.06 C504.00,620.65 515.14,619.96 528.75,619.53 C542.36,619.10 555.97,618.47 559.00,618.13 L 564.50 617.50 L 565.71 606.59 C566.89,595.92 567.66,594.05 570.90,594.02 C572.06,594.00 572.20,596.09 571.70,606.10 L 571.09 618.21 L 574.79 617.46 C576.49,617.12 586.27,616.77 597.99,616.58 C596.57,617.36 595.08,618.99 593.96,621.08 C593.38,622.15 593.26,622.63 594.21,622.84 C584.02,622.98 575.13,623.22 573.34,623.52 C570.26,624.04 570.14,624.26 569.04,631.28 C568.42,635.25 567.03,642.79 565.95,648.03 C564.88,653.28 564.00,657.82 564.00,658.13 C564.00,658.44 571.99,659.02 581.75,659.42 C588.78,659.71 595.82,660.15 600.04,660.55 C599.34,660.62 599.02,660.87 599.03,661.31 C599.09,663.26 602.09,666.30 604.51,667.03 C604.20,666.97 603.87,666.90 603.50,666.84 C601.30,666.44 591.40,665.80 581.50,665.41 C568.72,664.91 564.43,664.55 562.34,666.52 C561.09,667.69 560.62,669.70 559.58,673.00 C558.64,676.03 556.25,682.89 554.27,688.26 C552.30,693.63 550.91,698.24 551.18,698.52 C551.46,698.79 555.41,699.48 559.96,700.05 C564.52,700.63 569.65,701.71 571.37,702.46 C573.09,703.22 575.25,703.87 576.17,703.92 C577.08,703.96 582.64,698.94 588.52,692.75 C594.40,686.56 599.91,680.38 600.76,679.00 C600.98,678.65 601.25,678.26 601.55,677.86 C600.04,680.20 599.90,682.33 601.30,683.73 C602.40,684.83 603.11,685.16 604.36,683.95 C601.15,687.95 597.20,692.21 591.30,698.17 C585.41,704.13 582.91,707.33 583.33,708.42 C584.34,711.05 587.07,710.26 597.81,704.25 C604.85,700.31 612.80,695.04 619.16,690.32 C613.09,694.86 605.64,699.87 599.20,703.52 C591.95,707.62 590.37,708.94 590.50,710.77 C590.59,712.00 590.34,713.00 589.94,713.00 C588.00,713.00 588.02,716.60 589.98,718.19 C591.64,719.53 592.23,719.71 596.53,717.96 C593.71,719.18 590.86,720.36 588.00,721.48 C577.15,725.73 556.17,731.17 541.50,733.54 C529.30,735.52 495.86,736.25 484.00,734.81 ZM 576.87 412.44 C599.13,407.94 616.25,402.43 616.82,399.60 C617.35,397.01 595.47,356.00 593.56,356.00 C593.31,356.00 589.59,357.09 585.30,358.42 C577.63,360.80 566.19,363.27 556.67,364.58 C554.01,364.95 551.61,365.85 551.33,366.57 C550.92,367.66 555.40,387.89 558.89,400.66 C559.54,403.02 559.38,404.19 558.25,405.32 C556.15,407.42 557.32,411.13 560.72,413.16 C562.25,414.07 563.67,414.86 563.87,414.91 C564.08,414.96 569.93,413.85 576.87,412.44 ZM 542.93 659.66 L 557.36 658.50 L 558.18 655.50 C560.10,648.50 563.88,625.48 563.22,624.82 C562.82,624.43 555.75,624.52 547.50,625.03 C539.25,625.53 527.66,625.96 521.75,625.97 C516.29,625.99 513.38,625.57 512.05,626.82 C510.31,628.48 511.35,633.08 513.00,645.50 C514.09,653.75 514.99,660.81 514.99,661.19 C515.00,661.57 518.04,661.65 521.75,661.36 C525.46,661.07 534.99,660.31 542.93,659.66 ZM 559.50 357.96 C575.05,355.62 589.00,351.62 589.00,349.51 C589.00,347.23 574.56,328.84 567.20,321.76 L 560.21 315.01 L 556.35 316.36 C554.23,317.10 549.35,318.28 545.50,318.97 C541.65,319.67 537.94,320.39 537.25,320.59 C535.91,320.96 535.50,326.57 536.76,327.35 C537.18,327.61 539.99,335.04 543.01,343.87 C547.88,358.11 548.72,359.86 550.50,359.46 C551.60,359.22 555.65,358.54 559.50,357.96 ZM 489.19 702.75 C490.19,703.57 493.12,703.46 500.52,702.31 C506.01,701.45 511.45,700.40 512.60,699.97 L 514.71 699.18 L 512.24 684.34 C510.88,676.18 509.62,669.34 509.45,669.15 C509.00,668.66 486.13,670.80 477.25,672.16 C472.39,672.91 470.00,673.72 470.00,674.62 C470.00,675.36 471.35,678.16 473.00,680.85 C474.65,683.53 476.00,686.74 476.00,687.99 C476.00,689.24 477.58,692.00 479.50,694.13 C481.42,696.26 483.00,698.53 483.00,699.17 C483.00,699.82 483.75,701.18 484.68,702.19 C485.91,703.55 486.55,703.73 487.10,702.84 C487.65,701.94 488.20,701.92 489.19,702.75 ZM 545.96 692.75 C549.61,684.69 555.44,667.11 554.71,666.37 C554.06,665.73 517.09,667.58 516.38,668.29 C515.96,668.71 519.66,694.84 520.55,697.75 C520.83,698.65 524.03,699.00 532.03,699.00 L 543.13 699.00 ZM 603.94 344.03 C612.49,338.85 617.82,334.25 616.43,333.26 C615.85,332.84 611.12,329.28 605.93,325.34 C596.21,317.97 581.69,308.67 578.13,307.54 C576.80,307.12 574.72,307.82 572.03,309.60 C570.33,310.72 569.19,311.29 568.92,312.13 C568.43,313.65 570.76,316.05 577.80,324.13 C581.81,328.73 587.66,335.98 590.80,340.24 C593.93,344.50 596.70,347.98 596.94,347.99 C597.18,347.99 600.33,346.21 603.94,344.03 ZM 461.52 611.38 C460.63,610.49 460.08,609.59 460.30,609.37 C461.22,608.44 478.58,603.00 480.60,603.00 C481.83,603.00 482.98,602.62 483.17,602.15 C483.82,600.50 538.71,586.58 559.13,582.89 C565.42,581.76 565.93,581.82 568.94,583.96 C570.69,585.20 571.96,586.38 571.76,586.57 C571.57,586.76 564.91,588.12 556.96,589.57 C549.01,591.03 531.03,595.14 517.00,598.69 C481.88,607.59 479.11,608.22 474.08,608.41 C470.58,608.54 469.46,609.04 468.68,610.79 C467.51,613.42 463.87,613.72 461.52,611.38 ZM 542.00 726.29 C549.62,723.78 558.19,719.32 565.33,714.15 L 572.16 709.21 L 568.83 708.12 C565.35,706.99 553.14,705.05 549.24,705.02 C547.53,705.00 545.88,706.73 542.35,712.25 C539.80,716.24 536.20,721.35 534.35,723.60 C532.51,725.86 531.00,728.03 531.00,728.43 C531.00,729.28 535.65,728.38 542.00,726.29 ZM 543.14 313.43 C555.10,311.19 555.43,310.46 547.26,304.35 C536.98,296.67 519.00,286.49 516.93,287.19 C516.43,287.36 518.52,291.55 521.56,296.50 C524.61,301.45 528.03,307.64 529.17,310.25 C530.07,312.31 530.60,313.58 531.56,314.24 C533.13,315.34 535.83,314.80 543.14,313.43 ZM 618.94 322.76 C617.06,315.95 607.71,308.77 592.51,302.48 C587.71,300.49 583.16,299.11 582.40,299.40 C579.95,300.34 580.89,302.71 584.25,304.09 C588.45,305.81 609.31,319.77 614.50,324.32 C616.70,326.25 618.83,327.52 619.23,327.14 C619.63,326.75 619.50,324.78 618.94,322.76 ZM 518.07 719.97 C517.38,715.69 517.50,714.15 518.62,712.89 C520.22,711.10 519.49,708.00 517.48,708.00 C516.76,708.00 515.98,707.45 515.76,706.79 C515.45,705.86 513.20,705.96 506.08,707.22 C500.98,708.12 496.51,709.16 496.15,709.53 C494.62,711.10 516.58,727.59 518.23,726.11 C518.62,725.74 518.55,722.99 518.07,719.97 ZM 531.62 718.21 C536.07,712.04 539.40,706.06 538.74,705.41 C538.51,705.18 534.83,705.29 530.55,705.66 L 522.77 706.31 L 523.46 714.28 C524.57,726.97 525.11,727.23 531.62,718.21 ZM 532.50 561.99 C532.85,561.44 532.34,560.20 531.38,559.24 C529.73,557.59 529.96,557.46 536.07,556.78 C550.15,555.20 560.59,553.84 562.25,553.36 C564.84,552.62 564.42,555.25 561.43,558.49 C558.88,561.23 558.73,561.26 549.40,560.77 C543.53,560.46 539.71,560.66 539.32,561.29 C538.93,561.92 539.20,562.00 540.00,561.50 C540.87,560.96 541.07,561.08 540.60,561.85 C540.20,562.48 538.08,563.00 535.88,563.00 C533.45,563.00 532.13,562.61 532.50,561.99 ZM 619.23 648.00 C625.69,635.03 629.29,626.65 629.57,623.97 C629.64,624.32 629.56,624.77 629.36,625.38 C628.61,627.66 627.97,632.45 627.68,637.91 C627.35,644.09 629.47,642.14 633.00,633.00 L 636.48 624.00 L 640.13 624.00 C651.03,624.00 670.00,630.45 670.00,634.15 C670.00,636.08 663.53,645.28 656.34,654.35 C663.52,645.28 670.00,636.07 670.00,634.15 C670.00,630.45 651.01,623.99 640.14,624.00 L 636.50 624.01 L 633.13 632.75 C631.28,637.56 627.34,646.10 624.38,651.72 C621.54,657.10 619.20,661.88 619.01,662.65 C619.01,662.65 619.01,662.64 619.01,662.63 C619.02,662.01 620.10,659.61 621.43,657.30 C623.53,653.62 623.64,652.95 622.33,651.86 C620.27,650.15 618.13,651.66 614.92,657.11 C613.60,659.36 612.63,660.62 611.09,661.17 C613.33,659.87 615.12,656.24 619.23,648.00 ZM 568.91 304.38 C569.39,303.96 553.30,296.40 547.59,294.37 C545.45,293.60 543.50,293.17 543.26,293.41 C543.03,293.64 545.46,295.51 548.67,297.56 C551.88,299.61 556.25,302.78 558.38,304.60 C562.19,307.85 562.32,307.88 565.38,306.33 C567.10,305.46 568.68,304.58 568.91,304.38 ZM 600.50 616.55 C602.07,616.53 603.67,616.51 605.28,616.50 C606.45,616.49 607.60,616.47 608.73,616.46 C607.20,616.98 607.79,618.12 609.65,620.17 C610.92,621.57 612.77,622.00 617.53,622.00 C620.95,622.00 625.17,622.28 626.90,622.63 C627.45,622.74 627.90,622.84 628.26,622.96 C624.65,622.72 613.37,622.67 601.93,622.76 L 600.54 620.08 C599.38,617.83 599.32,617.04 600.26,616.66 C600.36,616.62 600.44,616.58 600.50,616.55 ZM 635.55 323.60 C640.70,328.33 642.43,328.94 643.41,326.37 C644.13,324.50 642.40,322.00 640.37,322.00 C639.61,322.00 638.01,320.88 636.81,319.50 C634.49,316.83 632.54,316.32 631.44,318.10 C631.06,318.71 632.88,321.15 635.55,323.60 ZM 602.30 306.99 C608.14,310.13 609.35,310.06 606.23,306.75 C603.98,304.36 596.18,301.45 595.13,302.59 C594.78,302.97 595.08,303.48 595.80,303.74 C596.51,303.99 599.43,305.46 602.30,306.99 ZM 573.77 297.82 C573.38,296.63 564.82,293.20 562.00,293.10 C559.87,293.02 570.11,298.76 572.33,298.89 C573.34,298.95 573.99,298.47 573.77,297.82 ZM 617.01 330.51 C617.70,331.35 618.04,331.82 618.41,331.84 C618.86,331.87 619.35,331.25 620.60,329.83 C621.64,328.63 621.94,327.99 621.25,328.39 C620.53,328.81 620.00,328.60 620.00,327.89 C620.00,327.22 619.70,326.97 619.33,327.34 C618.96,327.70 617.84,327.26 616.83,326.35 C615.82,325.44 615.00,325.17 615.00,325.76 C615.00,326.35 614.70,327.62 614.33,328.58 C613.91,329.69 614.05,330.09 614.72,329.68 C615.30,329.32 616.33,329.69 617.01,330.51 ZM 634.25 342.26 C632.21,340.57 630.41,339.33 629.22,338.96 C625.66,337.83 623.00,335.60 623.00,333.75 C623.00,333.27 623.45,333.16 624.00,333.50 C624.55,333.84 625.01,333.53 625.01,332.81 C625.02,332.15 625.24,330.65 625.51,329.34 L 625.52 333.60 L 634.25 342.26 ZM 527.74 424.33 C526.77,424.06 526.24,423.42 526.56,422.90 C527.19,421.89 536.96,422.76 538.27,423.94 C539.15,424.74 530.42,425.06 527.74,424.33 ZM 634.81 608.76 C636.47,602.50 638.56,593.56 639.37,588.78 C640.47,582.25 640.64,581.96 645.28,579.03 C646.10,578.51 646.82,578.08 647.49,577.72 C646.87,578.08 646.20,578.52 645.43,579.05 C640.75,582.27 640.39,583.00 642.00,586.01 C642.78,587.45 642.58,588.18 641.16,589.19 C640.14,589.91 639.07,591.62 638.76,593.00 C637.82,597.31 636.14,603.91 634.81,608.76 ZM 614.69 315.87 C616.23,317.44 618.07,318.52 618.77,318.25 C620.37,317.65 615.60,313.00 613.39,313.00 C612.34,313.00 612.74,313.88 614.69,315.87 ZM 655.17 364.87 C653.62,363.23 651.84,362.00 650.93,362.00 C649.57,362.00 649.00,361.30 649.00,359.65 C649.00,358.70 647.92,356.88 646.24,354.69 C648.55,357.20 650.61,359.51 652.04,361.22 C653.14,362.54 654.21,363.78 655.17,364.87 ZM 623.00 319.06 C623.00,320.22 624.07,320.24 625.86,319.11 C626.80,318.51 626.88,318.04 626.11,317.57 C624.84,316.78 623.00,317.67 623.00,319.06 ZM 578.10 712.20 C576.79,711.76 574.00,713.76 574.00,715.15 C574.00,715.64 575.19,715.27 576.64,714.32 C578.09,713.37 578.75,712.42 578.10,712.20 ZM 618.71 616.31 C626.22,616.15 631.58,615.95 632.49,615.75 C631.62,617.01 629.80,616.93 620.01,616.38 C619.56,616.35 619.13,616.33 618.71,616.31 ZM 486.63 284.79 C487.31,283.68 490.00,283.80 490.00,284.94 C490.00,285.45 489.13,285.81 488.07,285.73 C487.01,285.65 486.36,285.23 486.63,284.79 ZM 696.33 640.00 C684.00,657.48 667.49,673.89 648.35,688.07 C667.38,673.78 684.35,656.98 696.33,640.00 ZM 657.36 346.83 C659.34,349.84 660.07,351.33 660.34,353.93 C659.78,351.70 658.76,349.30 657.36,346.83 ZM 687.47 363.35 C695.69,373.24 702.26,382.40 701.29,383.37 C702.10,382.56 697.48,375.80 688.40,364.50 C688.08,364.11 687.77,363.73 687.47,363.35 ZM 668.71 389.31 C668.60,389.35 668.48,389.39 668.35,389.42 C666.71,389.92 665.84,389.41 664.29,386.97 C666.09,389.29 667.08,389.80 668.45,389.39 C668.54,389.37 668.63,389.34 668.71,389.31 ZM 634.89 672.96 L 633.67 671.74 C632.87,670.93 631.66,670.00 630.29,669.10 C632.39,670.39 634.06,671.69 634.61,672.52 C634.71,672.68 634.80,672.82 634.89,672.96 ZM 640.07 672.59 L 637.06 675.13 L 636.74 674.80 C637.42,674.83 638.29,674.09 640.07,672.59 ZM 623.46 665.55 C621.44,664.65 619.82,663.68 619.24,663.05 C619.82,663.57 621.41,664.51 623.46,665.55 ZM 628.43 344.05 C629.40,344.93 630.27,345.79 630.86,346.46 C632.31,348.08 636.43,352.58 640.02,356.46 C636.43,352.58 632.29,348.08 630.82,346.46 C630.21,345.78 629.36,344.93 628.43,344.05 ZM 660.05 367.54 C659.95,368.12 659.84,368.50 659.72,368.61 C659.68,368.66 659.61,368.68 659.54,368.69 C659.70,368.44 659.88,368.04 660.05,367.54 ZM 616.42 670.35 C618.03,670.03 619.81,670.51 622.20,671.59 C619.85,670.53 618.03,670.08 616.42,670.35 ZM 608.02 679.09 C608.35,678.59 608.71,678.06 609.09,677.49 C609.45,676.93 609.80,676.42 610.14,675.93 C609.44,677.02 608.73,678.06 608.02,679.09 ZM 657.40 367.32 C656.92,366.86 656.41,366.31 655.90,365.69 C655.87,365.66 655.85,365.63 655.82,365.60 C656.41,366.25 656.94,366.83 657.40,367.32 ZM 605.10 667.16 C605.48,667.22 605.82,667.32 606.10,667.47 C605.83,667.36 605.50,667.26 605.10,667.16 ZM 607.23 669.43 C607.23,669.96 607.10,670.55 606.84,671.19 C607.00,670.78 607.11,670.38 607.16,670.03 C607.19,669.81 607.21,669.61 607.23,669.43 Z" fill="rgba(73,156,113,1)"/>
<path d="M 589.98 718.19 C588.02,716.60 588.00,713.00 589.94,713.00 C590.34,713.00 590.59,712.00 590.50,710.77 C590.37,708.94 591.95,707.62 599.20,703.52 C612.84,695.79 631.00,681.98 631.00,679.33 C631.00,676.82 628.05,674.23 622.20,671.59 C616.30,668.93 614.09,669.92 609.09,677.49 C603.99,685.18 603.30,685.73 601.30,683.73 C599.34,681.77 600.41,678.36 604.05,674.96 C607.82,671.44 608.33,667.62 605.09,667.16 C602.60,666.81 599.09,663.42 599.03,661.31 C599.01,660.49 600.15,660.33 602.75,660.78 C610.93,662.20 612.14,661.83 614.92,657.11 C618.13,651.66 620.27,650.15 622.33,651.86 C623.64,652.95 623.53,653.62 621.43,657.30 C620.10,659.61 619.02,662.01 619.01,662.63 C619.01,663.26 621.54,664.80 624.64,666.06 C627.74,667.32 631.80,669.87 633.67,671.74 L 637.06 675.13 L 640.07 672.59 C648.10,665.84 670.00,637.71 670.00,634.15 C670.00,630.45 651.03,624.00 640.13,624.00 L 636.48 624.00 L 633.00 633.00 C629.47,642.14 627.35,644.09 627.68,637.91 C627.97,632.45 628.61,627.66 629.36,625.38 C629.94,623.59 629.57,623.16 626.90,622.63 C625.17,622.28 620.95,622.00 617.53,622.00 C612.77,622.00 610.92,621.57 609.65,620.17 C605.99,616.12 607.24,615.66 620.01,616.38 C631.86,617.05 632.03,617.03 632.98,614.78 C633.84,612.77 637.24,599.94 638.76,593.00 C639.07,591.62 640.14,589.91 641.16,589.19 C642.58,588.18 642.78,587.45 642.00,586.01 C640.39,583.00 640.75,582.27 645.43,579.05 C649.32,576.37 650.70,576.00 656.68,576.02 C665.58,576.05 675.83,577.56 683.97,580.05 C687.56,581.16 691.27,582.29 692.21,582.58 C693.45,582.96 694.31,582.19 695.30,579.81 C697.47,574.61 702.00,555.61 702.00,551.73 C702.00,548.48 701.73,548.17 698.25,547.46 C696.19,547.05 688.65,546.43 681.50,546.10 L 668.50 545.50 L 668.50 539.60 L 678.50 539.82 C684.00,539.94 691.54,540.56 695.26,541.18 C698.97,541.81 702.35,541.99 702.76,541.58 C703.72,540.61 703.61,498.24 702.62,490.75 C702.04,486.41 701.34,484.72 699.77,483.87 C696.13,481.93 678.99,480.04 664.75,480.02 L 651.00 480.00 L 651.00 477.02 C651.00,474.21 651.67,473.72 663.25,468.05 C678.52,460.57 693.00,450.12 693.00,446.58 C693.00,445.24 691.25,439.64 689.10,434.14 C686.96,428.63 685.46,423.88 685.77,423.57 C686.77,422.56 692.00,422.97 692.00,424.05 C692.00,426.38 698.37,441.04 699.26,440.75 C700.66,440.28 706.99,427.83 707.01,425.50 C707.04,422.36 708.52,420.80 711.11,421.16 C713.17,421.45 713.46,421.98 713.24,425.00 C712.95,429.03 707.07,441.57 703.49,445.84 L 701.05 448.73 L 704.21 464.29 L 707.37 479.86 L 713.94 482.64 C718.37,484.52 722.43,487.30 726.44,491.19 C729.70,494.37 732.60,496.73 732.88,496.45 C733.62,495.72 731.26,477.21 728.88,465.00 C726.43,452.44 723.03,439.97 719.55,430.73 C718.15,427.00 717.00,423.49 717.00,422.91 C717.00,422.34 718.46,422.01 720.25,422.19 C723.45,422.49 723.56,422.68 727.33,433.89 C731.78,447.14 736.40,466.67 738.12,479.50 C740.12,494.49 739.59,526.22 737.06,542.00 C731.35,577.73 718.56,608.51 696.33,640.00 C674.68,670.68 636.78,700.74 599.79,716.59 C592.44,719.74 591.99,719.81 589.98,718.19 ZM 679.79 618.75 C685.65,606.89 692.00,592.16 692.00,590.40 C692.00,587.21 679.40,583.91 660.09,582.02 C653.82,581.41 648.31,581.29 647.86,581.74 C647.40,582.20 645.93,587.95 644.59,594.53 C643.25,601.12 641.42,608.65 640.53,611.27 C639.64,613.89 639.15,616.43 639.44,616.90 C639.73,617.38 642.56,618.09 645.73,618.49 C652.91,619.38 667.56,623.57 670.35,625.53 C674.26,628.27 675.54,627.35 679.79,618.75 ZM 728.97 553.25 C731.57,538.42 733.12,522.30 732.47,517.02 C731.15,506.23 725.43,496.46 717.30,491.07 C714.36,489.13 712.53,487.71 711.39,488.14 C709.33,488.91 709.53,495.69 709.62,516.25 L 709.74 544.50 L 713.39 546.58 C717.87,549.14 722.61,553.58 724.80,557.25 C725.70,558.76 726.74,560.00 727.11,560.00 C727.49,560.00 728.33,556.96 728.97,553.25 ZM 663.15 385.42 C659.99,380.92 659.86,380.86 657.49,382.41 C652.41,385.74 648.96,382.80 652.96,378.54 C654.88,376.50 655.01,375.88 653.92,373.84 C651.99,370.22 647.16,364.18 640.02,356.46 C636.43,352.58 632.31,348.08 630.86,346.46 C629.41,344.83 626.40,342.15 624.16,340.50 C621.92,338.85 620.07,337.14 620.05,336.71 C620.02,336.27 620.88,334.97 621.97,333.81 C623.05,332.65 623.74,331.38 623.50,331.00 C623.26,330.61 623.76,329.44 624.61,328.40 C626.08,326.59 626.12,326.61 625.59,329.00 C625.28,330.38 625.02,332.09 625.01,332.81 C625.01,333.53 624.55,333.84 624.00,333.50 C623.45,333.16 623.00,333.27 623.00,333.75 C623.00,335.60 625.66,337.83 629.22,338.96 C634.03,340.48 649.00,356.14 649.00,359.65 C649.00,361.30 649.57,362.00 650.93,362.00 C651.99,362.00 654.22,363.66 655.90,365.69 C657.57,367.73 659.29,369.04 659.72,368.61 C660.15,368.18 660.50,364.15 660.50,359.65 C660.50,351.65 660.40,351.33 656.13,344.99 C653.73,341.42 650.24,336.90 648.37,334.95 C645.39,331.82 645.14,331.18 646.33,329.57 C648.55,326.53 653.55,329.08 664.04,338.61 C675.27,348.81 678.80,352.56 688.40,364.50 C697.48,375.80 702.10,382.56 701.29,383.37 C700.95,383.72 699.28,383.98 697.58,383.95 C694.86,383.90 693.81,382.89 688.50,375.22 C682.97,367.22 668.62,351.00 667.07,351.00 C666.70,351.00 666.59,353.92 666.82,357.50 C667.09,361.79 666.69,365.67 665.62,368.93 C664.73,371.65 664.00,374.37 664.00,374.98 C664.00,375.59 665.85,378.58 668.10,381.64 C672.22,387.21 672.26,388.25 668.45,389.39 C666.82,389.88 665.72,389.06 663.15,385.42 ZM 715.77 593.75 C722.51,578.11 723.67,569.08 719.92,561.34 C717.62,556.58 712.80,552.00 710.08,552.00 C708.68,552.00 708.06,553.48 707.03,559.25 C706.32,563.24 704.49,570.97 702.96,576.44 L 700.18 586.39 L 704.43 591.94 C706.77,595.00 708.99,598.74 709.36,600.25 C709.73,601.76 710.43,603.00 710.91,603.00 C711.39,603.00 713.58,598.84 715.77,593.75 ZM 689.83 638.06 C693.22,633.69 697.79,626.69 699.99,622.51 C703.48,615.90 704.00,614.06 704.00,608.40 C704.00,601.88 702.56,597.54 699.56,595.05 C698.20,593.92 697.71,594.44 695.78,599.12 C692.41,607.32 683.14,626.00 680.86,629.20 C678.92,631.92 678.90,632.26 680.41,636.70 C681.29,639.26 682.00,642.40 682.00,643.68 C682.00,644.96 682.38,646.00 682.84,646.00 C683.30,646.00 686.45,642.43 689.83,638.06 ZM 650.00 678.93 C654.12,675.77 659.84,670.79 662.69,667.85 C671.98,658.28 677.78,646.00 675.19,641.37 C674.35,639.87 673.75,640.31 670.86,644.50 C662.36,656.79 656.26,664.25 647.00,673.64 C640.38,680.36 637.00,684.54 637.00,686.01 C637.00,688.20 637.04,688.20 639.75,686.45 C641.26,685.47 645.88,682.08 650.00,678.93 ZM 700.00 474.75 C700.01,470.25 696.51,455.75 695.30,455.28 C694.61,455.02 692.80,455.78 691.28,456.97 C684.54,462.23 677.14,467.32 672.75,469.72 C670.14,471.15 668.00,472.70 668.00,473.16 C668.00,473.62 671.26,474.02 675.25,474.05 C679.24,474.07 685.42,474.69 689.00,475.43 C698.84,477.45 700.00,477.38 700.00,474.75 ZM 635.55 323.60 C632.88,321.15 631.06,318.71 631.44,318.10 C632.54,316.32 634.49,316.83 636.81,319.50 C638.01,320.88 639.61,322.00 640.37,322.00 C642.40,322.00 644.13,324.50 643.41,326.37 C642.43,328.94 640.70,328.33 635.55,323.60 ZM 593.96 621.08 C595.58,618.05 597.99,615.99 599.82,616.08 C600.84,616.13 601.01,616.35 600.26,616.66 C599.32,617.04 599.38,617.83 600.54,620.08 L 602.05 623.00 L 597.49 623.00 C593.30,623.00 593.01,622.84 593.96,621.08 ZM 602.30 306.99 C599.43,305.46 596.51,303.99 595.80,303.74 C595.08,303.48 594.78,302.97 595.13,302.59 C596.18,301.45 603.98,304.36 606.23,306.75 C609.35,310.06 608.14,310.13 602.30,306.99 ZM 617.01 330.51 C616.33,329.69 615.30,329.32 614.72,329.68 C614.05,330.09 613.91,329.69 614.33,328.58 C614.70,327.62 615.00,326.35 615.00,325.76 C615.00,325.17 615.82,325.44 616.83,326.35 C617.84,327.26 618.96,327.70 619.33,327.34 C619.70,326.97 620.00,327.22 620.00,327.89 C620.00,328.60 620.53,328.81 621.25,328.39 C621.94,327.99 621.64,328.63 620.60,329.83 C619.35,331.25 618.86,331.87 618.41,331.84 C618.04,331.82 617.70,331.35 617.01,330.51 ZM 614.69 315.87 C612.74,313.88 612.34,313.00 613.39,313.00 C615.60,313.00 620.37,317.65 618.77,318.25 C618.07,318.52 616.23,317.44 614.69,315.87 ZM 623.00 319.06 C623.00,317.67 624.84,316.78 626.11,317.57 C626.88,318.04 626.80,318.51 625.86,319.11 C624.07,320.24 623.00,320.22 623.00,319.06 Z" fill="rgba(108,169,98,1)"/>
<path d="M 268.54 637.85 C241.56,634.40 229.66,613.32 237.42,582.73 C241.31,567.39 255.47,540.29 266.00,528.00 C268.80,524.74 268.49,525.59 262.27,538.03 C255.44,551.71 253.54,558.95 253.52,571.50 C253.50,583.43 254.81,587.75 260.26,593.66 C263.36,597.02 265.71,598.45 270.73,600.00 C286.11,604.75 306.32,601.28 337.61,588.50 C368.02,576.09 388.74,563.35 496.73,490.72 C535.87,464.39 571.64,442.02 592.79,430.64 C638.37,406.11 677.36,393.92 710.50,393.85 C728.31,393.81 746.35,399.48 756.50,408.30 C767.63,417.97 772.65,436.42 768.49,452.38 C767.04,457.94 760.61,473.00 759.68,473.00 C759.44,473.00 760.64,469.06 762.35,464.25 C765.14,456.41 765.46,454.30 765.48,443.98 C765.50,432.95 765.36,432.17 762.20,425.76 C757.42,416.05 749.15,409.96 734.50,405.38 C725.55,402.58 700.10,402.82 687.01,405.83 C648.41,414.71 611.65,433.90 557.61,473.39 C539.47,486.65 500.69,516.18 477.43,534.45 C445.97,559.15 432.66,568.92 408.50,584.99 C361.24,616.43 322.12,634.04 290.80,637.97 C281.48,639.13 278.41,639.12 268.54,637.85 ZM 268.35 635.97 C274.77,637.13 290.54,636.41 298.50,634.61 C319.54,629.83 323.49,628.56 337.00,622.21 C342.23,619.76 348.23,617.14 350.35,616.38 C353.85,615.14 360.05,611.85 380.50,600.34 C386.57,596.93 397.52,589.85 414.00,578.68 C416.48,577.00 424.12,571.84 431.00,567.21 C437.88,562.57 445.99,556.64 449.03,554.02 C452.07,551.39 457.69,546.86 461.53,543.94 C482.61,527.88 490.10,522.09 495.66,517.54 C499.05,514.77 505.57,509.74 510.16,506.36 C514.75,502.98 525.46,494.92 533.97,488.45 C542.48,481.97 552.40,474.61 556.01,472.09 C559.63,469.56 565.27,465.56 568.54,463.18 C579.94,454.91 607.04,437.49 616.15,432.58 C618.71,431.20 622.76,428.78 625.15,427.20 C627.54,425.63 631.08,423.75 633.00,423.03 C634.92,422.31 640.25,419.96 644.83,417.81 C668.06,406.92 694.45,400.79 717.56,400.91 C725.72,400.95 728.47,401.46 737.97,404.67 C744.01,406.71 749.20,408.13 749.50,407.83 C749.80,407.53 749.78,406.59 749.45,405.74 C748.83,404.12 731.69,397.77 722.74,395.85 C716.14,394.43 692.20,395.56 684.84,397.64 C678.61,399.40 673.46,400.65 666.50,402.10 C663.75,402.68 659.25,403.99 656.50,405.03 C653.75,406.06 649.47,407.42 647.00,408.04 C644.53,408.67 640.18,410.50 637.34,412.11 C634.50,413.73 629.77,415.91 626.84,416.96 C619.68,419.53 608.74,424.06 607.50,424.98 C606.95,425.38 603.12,427.43 599.00,429.52 C594.88,431.61 589.36,434.65 586.75,436.27 C584.14,437.89 580.26,440.18 578.13,441.36 C576.01,442.53 572.82,444.40 571.06,445.50 C563.51,450.21 551.17,457.50 547.05,459.68 C544.60,460.98 541.67,462.90 540.55,463.95 C536.92,467.34 503.65,489.24 499.00,491.29 C496.52,492.38 492.88,494.72 490.91,496.49 C488.93,498.26 482.18,503.14 475.91,507.33 C469.63,511.52 461.35,517.23 457.50,520.02 C453.65,522.81 448.73,526.03 446.56,527.16 C444.40,528.30 441.96,529.89 441.15,530.70 C439.17,532.69 409.17,552.30 398.81,558.38 C394.24,561.07 385.72,566.07 379.87,569.49 C374.02,572.91 367.68,576.91 365.77,578.36 C363.87,579.81 361.61,581.00 360.76,581.00 C359.90,581.00 356.64,582.35 353.50,584.00 C350.36,585.65 347.07,587.00 346.19,587.00 C345.30,587.00 339.84,589.23 334.04,591.95 C328.24,594.68 318.10,598.35 311.50,600.11 C301.11,602.87 297.76,603.32 286.50,603.40 C276.21,603.48 272.53,603.13 268.84,601.70 C263.42,599.61 255.38,591.58 254.47,587.34 C254.14,585.78 253.40,583.38 252.84,582.00 C252.27,580.62 251.56,576.20 251.25,572.16 C250.89,567.31 250.24,564.64 249.34,564.30 C243.77,562.16 236.39,584.78 237.24,601.40 C237.91,614.79 240.54,620.86 248.21,626.83 C254.83,631.98 260.53,634.56 268.35,635.97 ZM 612.54 587.75 C612.26,586.51 611.91,583.70 611.77,581.50 L 611.50 577.50 L 600.00 576.88 C588.15,576.25 581.67,575.34 578.92,573.93 C577.65,573.27 577.37,571.42 577.49,564.31 C577.57,559.69 577.33,557.30 578.39,556.37 C579.66,555.25 582.78,556.23 590.50,557.95 C600.47,560.18 607.53,560.56 608.54,558.93 C609.13,557.98 607.97,545.50 606.14,533.15 L 605.50 528.80 L 596.41 526.50 C591.40,525.23 585.49,523.27 583.27,522.14 C571.53,516.15 565.69,502.59 569.42,490.00 C572.53,479.51 579.53,472.48 592.00,467.35 L 597.50 465.08 L 597.50 454.50 L 601.90 454.19 C606.85,453.83 607.96,454.82 607.98,459.60 L 608.00 462.69 L 619.75 463.33 C629.76,463.87 633.62,463.88 635.10,465.76 C636.18,467.13 636.00,469.48 636.00,473.73 L 636.00 482.23 L 633.25 481.56 C628.51,480.39 612.89,479.71 612.01,480.62 C611.16,481.52 613.25,506.58 614.26,507.59 C614.56,507.90 618.08,508.82 622.07,509.65 C638.09,512.97 645.82,517.85 650.65,527.72 C654.26,535.09 654.49,545.05 651.22,552.26 C647.03,561.51 637.69,569.48 627.50,572.52 L 623.50 573.71 L 623.21 581.25 C622.95,588.06 622.71,588.84 620.71,589.38 C615.93,590.66 613.06,590.09 612.54,587.75 ZM 615.20 586.80 C616.62,588.22 617.98,588.30 619.89,587.09 C620.93,586.43 621.12,584.96 620.63,581.26 C619.76,574.72 622.07,571.62 629.39,569.49 C632.60,568.55 636.91,566.12 640.46,563.23 C645.31,559.28 646.66,557.45 648.63,552.13 C651.58,544.19 651.67,536.87 648.92,529.50 C646.23,522.31 637.46,514.57 630.82,513.51 C622.94,512.25 614.07,509.79 613.07,508.58 C611.64,506.86 609.07,482.95 610.04,480.39 C611.48,476.61 616.30,475.75 625.25,477.68 C632.08,479.14 633.27,479.18 634.06,477.94 C635.15,476.21 634.22,469.94 632.63,468.38 C630.48,466.26 624.67,465.00 617.01,465.00 C608.66,465.00 607.17,464.21 605.07,458.68 C603.35,454.16 600.62,455.52 599.96,461.22 C599.66,463.80 599.21,466.10 598.96,466.34 C598.71,466.57 594.90,468.41 590.50,470.42 C582.47,474.11 575.95,479.33 573.55,484.00 C570.71,489.54 569.80,496.47 571.06,502.92 C573.26,514.07 581.98,521.89 594.00,523.49 C600.46,524.35 604.96,526.04 606.86,528.33 C608.12,529.85 608.39,532.88 609.30,555.38 C609.59,562.42 608.52,562.82 595.30,560.69 C584.45,558.95 581.01,558.18 579.88,559.45 C579.21,560.20 579.33,561.67 579.21,564.06 C578.98,568.40 579.30,569.95 580.71,571.16 C583.57,573.65 591.73,575.26 602.32,575.44 C613.22,575.63 613.96,576.05 613.98,582.05 C613.99,584.00 614.54,586.14 615.20,586.80 ZM 627.10 557.74 C620.50,562.13 619.03,560.66 617.18,547.84 C614.69,530.57 615.22,528.33 621.50,529.62 C625.52,530.45 628.93,532.27 632.25,535.35 C634.43,537.38 635.00,538.80 635.00,542.24 C635.00,547.87 631.44,554.86 627.10,557.74 ZM 603.31 504.75 C602.22,507.61 594.75,504.86 590.79,500.16 C587.65,496.44 586.47,491.86 587.93,489.13 C589.41,486.37 597.36,480.00 599.32,480.00 C600.20,480.00 601.33,480.79 601.83,481.75 C602.83,483.69 604.05,502.78 603.31,504.75 ZM 625.70 556.04 C635.47,550.09 634.96,538.51 624.69,533.21 C617.81,529.66 617.44,530.39 618.88,544.60 C619.82,553.85 620.13,557.30 621.52,557.80 C622.37,558.11 623.63,557.30 625.70,556.04 ZM 601.49 496.25 C600.27,480.28 599.52,479.28 593.40,485.40 C590.69,488.11 590.01,489.58 590.03,492.65 C590.05,494.77 590.61,497.19 591.28,498.02 C593.52,500.82 598.25,504.00 600.18,504.00 C601.94,504.00 602.04,503.41 601.49,496.25 Z" fill="rgba(216,162,78,1)"/>
<path d="M 268.35 635.97 C260.53,634.56 254.83,631.98 248.21,626.83 C240.54,620.86 237.91,614.79 237.24,601.40 C236.39,584.78 243.77,562.16 249.34,564.30 C250.24,564.64 250.89,567.31 251.25,572.16 C251.56,576.20 252.27,580.62 252.84,582.00 C253.40,583.38 254.14,585.78 254.47,587.34 C255.38,591.58 263.42,599.61 268.84,601.70 C272.53,603.13 276.21,603.48 286.50,603.40 C297.76,603.32 301.11,602.87 311.50,600.11 C318.10,598.35 328.24,594.68 334.04,591.95 C339.84,589.23 345.30,587.00 346.19,587.00 C347.07,587.00 350.36,585.65 353.50,584.00 C356.64,582.35 359.90,581.00 360.76,581.00 C361.61,581.00 363.87,579.81 365.77,578.36 C367.68,576.91 374.02,572.91 379.87,569.49 C385.72,566.07 394.24,561.07 398.81,558.38 C409.17,552.30 439.17,532.69 441.15,530.70 C441.96,529.89 444.40,528.30 446.56,527.16 C448.73,526.03 453.65,522.81 457.50,520.02 C461.35,517.23 469.63,511.52 475.91,507.33 C482.18,503.14 488.93,498.26 490.91,496.49 C492.88,494.72 496.52,492.38 499.00,491.29 C503.65,489.24 536.92,467.34 540.55,463.95 C541.67,462.90 544.60,460.98 547.05,459.68 C551.17,457.50 563.51,450.21 571.06,445.50 C572.82,444.40 576.01,442.53 578.13,441.36 C580.26,440.18 584.14,437.89 586.75,436.27 C589.36,434.65 594.88,431.61 599.00,429.52 C603.12,427.43 606.95,425.38 607.50,424.98 C608.74,424.06 619.68,419.53 626.84,416.96 C629.77,415.91 634.50,413.73 637.34,412.11 C640.18,410.50 644.53,408.67 647.00,408.04 C649.47,407.42 653.75,406.06 656.50,405.03 C659.25,403.99 663.75,402.68 666.50,402.10 C673.46,400.65 678.61,399.40 684.84,397.64 C692.20,395.56 716.14,394.43 722.74,395.85 C731.69,397.77 748.83,404.12 749.45,405.74 C749.78,406.59 749.80,407.53 749.50,407.83 C749.20,408.13 744.01,406.71 737.97,404.67 C728.47,401.46 725.72,400.95 717.56,400.91 C694.45,400.79 668.06,406.92 644.83,417.81 C640.25,419.96 634.92,422.31 633.00,423.03 C631.08,423.75 627.54,425.63 625.15,427.20 C622.76,428.78 618.71,431.20 616.15,432.58 C607.04,437.49 579.94,454.91 568.54,463.18 C565.27,465.56 559.63,469.56 556.01,472.09 C552.40,474.61 542.48,481.97 533.97,488.45 C525.46,494.92 514.75,502.98 510.16,506.36 C505.57,509.74 499.05,514.77 495.66,517.54 C490.10,522.09 482.61,527.88 461.53,543.94 C457.69,546.86 452.07,551.39 449.03,554.02 C445.99,556.64 437.88,562.57 431.00,567.21 C424.12,571.84 416.48,577.00 414.00,578.68 C397.52,589.85 386.57,596.93 380.50,600.34 C360.05,611.85 353.85,615.14 350.35,616.38 C348.23,617.14 342.23,619.76 337.00,622.21 C323.49,628.56 319.54,629.83 298.50,634.61 C290.54,636.41 274.77,637.13 268.35,635.97 ZM 615.20 586.80 C614.54,586.14 613.99,584.00 613.98,582.05 C613.96,576.05 613.22,575.63 602.32,575.44 C591.73,575.26 583.57,573.65 580.71,571.16 C579.30,569.95 578.98,568.40 579.21,564.06 C579.55,557.61 578.05,557.92 595.30,560.69 C608.52,562.82 609.59,562.42 609.30,555.38 C608.39,532.88 608.12,529.85 606.86,528.33 C604.96,526.04 600.46,524.35 594.00,523.49 C581.98,521.89 573.26,514.07 571.06,502.92 C569.80,496.47 570.71,489.54 573.55,484.00 C575.95,479.33 582.47,474.11 590.50,470.42 C594.90,468.41 598.71,466.57 598.96,466.34 C599.21,466.10 599.66,463.80 599.96,461.22 C600.62,455.52 603.35,454.16 605.07,458.68 C607.17,464.21 608.66,465.00 617.01,465.00 C624.67,465.00 630.48,466.26 632.63,468.38 C634.22,469.94 635.15,476.21 634.06,477.94 C633.27,479.18 632.08,479.14 625.25,477.68 C616.30,475.75 611.48,476.61 610.04,480.39 C609.07,482.95 611.64,506.86 613.07,508.58 C614.07,509.79 622.94,512.25 630.82,513.51 C637.46,514.57 646.23,522.31 648.92,529.50 C651.67,536.87 651.58,544.19 648.63,552.13 C646.66,557.45 645.31,559.28 640.46,563.23 C636.91,566.12 632.60,568.55 629.39,569.49 C622.07,571.62 619.76,574.72 620.63,581.26 C621.12,584.96 620.93,586.43 619.89,587.09 C617.98,588.30 616.62,588.22 615.20,586.80 ZM 627.10 557.74 C631.44,554.86 635.00,547.87 635.00,542.24 C635.00,538.80 634.43,537.38 632.25,535.35 C628.93,532.27 625.52,530.45 621.50,529.62 C615.22,528.33 614.69,530.57 617.18,547.84 C619.03,560.66 620.50,562.13 627.10,557.74 ZM 603.31 504.75 C604.05,502.78 602.83,483.69 601.83,481.75 C601.33,480.79 600.20,480.00 599.32,480.00 C597.36,480.00 589.41,486.37 587.93,489.13 C586.47,491.86 587.65,496.44 590.79,500.16 C594.75,504.86 602.22,507.61 603.31,504.75 Z" fill="rgba(231,164,60,1)"/>
</g>
</svg>